<svg width="24" height="24" viewBox="0 0 24 24" fill="none" xmlns="http://www.w3.org/2000/svg">
<g clip-path="url(#clip0_1_3874)">
<path d="M11.9779 5.83309C8.57969 5.83309 5.83868 8.57411 5.83868 11.9723C5.83868 15.3705 8.57969 18.1115 11.9779 18.1115C15.3761 18.1115 18.1171 15.3705 18.1171 11.9723C18.1171 8.57411 15.3761 5.83309 11.9779 5.83309ZM11.9779 15.9636C9.78189 15.9636 7.98661 14.1737 7.98661 11.9723C7.98661 9.77096 9.77655 7.98102 11.9779 7.98102C14.1793 7.98102 15.9692 9.77096 15.9692 11.9723C15.9692 14.1737 14.1739 15.9636 11.9779 15.9636ZM19.8002 5.58197C19.8002 6.37809 19.159 7.01392 18.3683 7.01392C17.5721 7.01392 16.9363 6.37275 16.9363 5.58197C16.9363 4.79119 17.5775 4.15001 18.3683 4.15001C19.159 4.15001 19.8002 4.79119 19.8002 5.58197ZM23.8663 7.03529C23.7755 5.11712 23.3374 3.41801 21.9321 2.01811C20.5322 0.61822 18.8331 0.180086 16.9149 0.0839098C14.938 -0.0282954 9.01248 -0.0282954 7.03553 0.0839098C5.1227 0.174743 3.42359 0.612877 2.01836 2.01277C0.613122 3.41266 0.18033 5.11177 0.0841539 7.02995C-0.0280513 9.0069 -0.0280513 14.9324 0.0841539 16.9093C0.174987 18.8275 0.613122 20.5266 2.01836 21.9265C3.42359 23.3264 5.11736 23.7646 7.03553 23.8607C9.01248 23.9729 14.938 23.9729 16.9149 23.8607C18.8331 23.7699 20.5322 23.3318 21.9321 21.9265C23.332 20.5266 23.7701 18.8275 23.8663 16.9093C23.9785 14.9324 23.9785 9.01224 23.8663 7.03529ZM21.3123 19.0306C20.8955 20.0778 20.0887 20.8846 19.0362 21.3067C17.4599 21.9319 13.7198 21.7876 11.9779 21.7876C10.2361 21.7876 6.49054 21.9265 4.91966 21.3067C3.87242 20.89 3.06561 20.0832 2.6435 19.0306C2.01836 17.4543 2.16262 13.7142 2.16262 11.9723C2.16262 10.2305 2.0237 6.48495 2.6435 4.91408C3.06026 3.86683 3.86707 3.06002 4.91966 2.63791C6.49588 2.01277 10.2361 2.15703 11.9779 2.15703C13.7198 2.15703 17.4653 2.01811 19.0362 2.63791C20.0834 3.05468 20.8902 3.86149 21.3123 4.91408C21.9375 6.49029 21.7932 10.2305 21.7932 11.9723C21.7932 13.7142 21.9375 17.4597 21.3123 19.0306Z" fill="white"/>
</g>
<defs>
<clipPath id="clip0_1_3874">
<rect width="24" height="24" fill="white"/>
</clipPath>
</defs>
</svg>
