<svg width="24" height="24" viewBox="0 0 24 24" fill="none" xmlns="http://www.w3.org/2000/svg">
<path d="M10 4L8 6" stroke="black" stroke-width="2" stroke-linecap="round" stroke-linejoin="round"/>
<path d="M17 19V21" stroke="black" stroke-width="2" stroke-linecap="round" stroke-linejoin="round"/>
<path d="M2 12H22" stroke="black" stroke-width="2" stroke-linecap="round" stroke-linejoin="round"/>
<path d="M7 19V21" stroke="black" stroke-width="2" stroke-linecap="round" stroke-linejoin="round"/>
<path d="M9 5.00005L7.621 3.62105C7.33181 3.33051 6.96463 3.13001 6.56388 3.04379C6.16313 2.95757 5.74598 2.98932 5.36289 3.13521C4.97981 3.2811 4.64721 3.53488 4.40533 3.86584C4.16346 4.19679 4.02267 4.59075 4 5.00005V17C4 17.5305 4.21071 18.0392 4.58579 18.4143C4.96086 18.7893 5.46957 19 6 19H18C18.5304 19 19.0391 18.7893 19.4142 18.4143C19.7893 18.0392 20 17.5305 20 17V12" stroke="black" stroke-width="2" stroke-linecap="round" stroke-linejoin="round"/>
</svg>
