<svg width="21" height="24" viewBox="0 0 21 24" fill="none" xmlns="http://www.w3.org/2000/svg">
<g clip-path="url(#clip0_1_3889)">
<path d="M20.909 9.79741C18.8539 9.8018 16.8484 9.16001 15.1777 7.96321V16.3081C15.1764 20.4704 11.7511 23.8947 7.58885 23.8947C3.42572 23.8947 0 20.4689 0 16.3058C0 12.1427 3.42572 8.71696 7.58885 8.71696C7.93857 8.71696 8.28791 8.74113 8.63431 8.7893V12.9851C8.29603 12.8786 7.94347 12.8245 7.58885 12.8245C5.67885 12.8245 4.10713 14.3961 4.10713 16.3062C4.10713 18.2162 5.67885 19.7879 7.58885 19.7879C9.49811 19.7879 11.0695 18.2174 11.0706 16.3081V0.000976562H15.1777C15.1754 0.348356 15.2051 0.695175 15.2664 1.03709C15.5549 2.57675 16.4654 3.93145 17.782 4.78018C18.7096 5.39284 19.7973 5.71917 20.909 5.71829V9.79741Z" fill="white"/>
</g>
<defs>
<clipPath id="clip0_1_3889">
<rect width="20.9109" height="24" fill="white"/>
</clipPath>
</defs>
</svg>
