<svg width="24" height="17" viewBox="0 0 24 17" fill="none" xmlns="http://www.w3.org/2000/svg">
<g clip-path="url(#clip0_1_3879)">
<path d="M23.476 2.6377C23.1994 1.59735 22.3873 0.780873 21.3557 0.504324C19.4857 -0.000488281 11.9882 -0.000488281 11.9882 -0.000488281C11.9882 -0.000488281 4.49063 -0.000488281 2.62063 0.504324C1.58906 0.780873 0.776972 1.59735 0.500422 2.6377C0 4.52087 0 8.44524 0 8.44524C0 8.44524 0 12.3696 0.500422 14.2528C0.776972 15.2931 1.58906 16.0745 2.62063 16.351C4.49063 16.8558 11.9882 16.8558 11.9882 16.8558C11.9882 16.8558 19.4857 16.8558 21.3557 16.351C22.3873 16.0745 23.1994 15.2887 23.476 14.2528C23.9764 12.3696 23.9764 8.44524 23.9764 8.44524C23.9764 8.44524 23.9764 4.52087 23.476 2.6377ZM9.53875 12.0096V4.88082L15.8028 8.44524L9.53875 12.0096Z" fill="white"/>
</g>
<defs>
<clipPath id="clip0_1_3879">
<rect width="24" height="16.9" fill="white"/>
</clipPath>
</defs>
</svg>
